<svg width="215" height="156" viewBox="0 0 215 156" version="1.1" xmlns="http://www.w3.org/2000/svg"><g id="Desktop" stroke="none" stroke-width="1" fill="none" fill-rule="evenodd"><g id="Landing-page" transform="translate(-946 -6510)"><g id="Newsletter" transform="translate(-1 6385)"><g id="CTA" transform="translate(165 80)"><g id="Image"><g id="Newsletter-Pigeon" transform="scale(-1 1) rotate(-8 42.471 7142.578)"><g id="Group-25-Copy" transform="translate(7 27.941)" stroke="#000" stroke-linecap="round" stroke-linejoin="round" stroke-width="2"><path d="M134 30.237c-8.454-2.477-23.518-9.914-33.166-3.146-9.1 6.384-20.051 22.547-33.314 18.251C51.009 42.53 28.99 19.795 30.3.06" id="Path-122"/><path d="M30.3.059c-13.3 14.678-12.85 50.798 4.7 64" id="Path-123"/><path d="M36 64.059c-15.749 0-27.612-4.712-35-19" id="Path-124"/><path d="M133 30.063c-3.03-.078-4.98.845-5.85 2.77-1.303 2.887-15.194 52.29-42.346 59.582C22.736 111.025-2.982 52.712.273 44.391" id="Path-125"/><path d="M46.582 33.559C39.27 25.34 42.177 4.344 47 1.059" id="Path-126"/><path d="M47 1.059c7.694 16.203 12.385 26.897 40 37" id="Path-127"/><path d="M110.043 34.052c.992-.071 1.587-1.882-.138-2.87-2.74-.856-2.375 3.052.138 2.87z" id="Path-128" fill="#000"/></g><g id="Group-14" transform="rotate(-8 130.752 -864.942)" stroke="#000" stroke-linecap="round" stroke-linejoin="round" stroke-width="2"><path d="M6.675 66.9C.71 45.259 43.335 23.409 54.528 16.95" id="Path-3-Copy"/><g id="Group-29-Copy" transform="translate(38.13 26.128)" fill="#7CC25A"><path d="M24.555 2.648c.012.006-.2.027-.636.062l.636-.044C11.182 8.546.967 4.993.556 4.34h0l.002-.001.385-.24c7.631-4.676 15.39-5.613 23.612-1.452z" id="Combined-Shape"/></g><g id="Group-29-Copy-3" transform="rotate(-55 29.657 14.475)" fill="#7CC25A"><path d="M26.206-1.212l-.017.038.004.67C26.188 22.03 12.96 31.702 11.47 31.718l-.031.07c-1.3-14.055 2.73-25.35 14.767-33z" id="Combined-Shape" transform="rotate(61 18.706 15.288)"/></g><path d="M21.237 43.112c12.205-8.821 18.274-5.91 33.653-5.91 1.232 0-7.61 8.543-12.086 9.663-4.923 1.232-9.184 1.405-14.148.386-2.134-.438-7.85-2.634-9.445-2.634-.161 0 .514-.502 2.026-1.505z" id="Path-34-Copy" fill="#7CC25A"/><path d="M49.117 5.734c-1.306 4.472-.966 7.75-5.144 10.82-2.722 1.999-6.84 4.633-9.856 6.174 0-8.645 15.071-17.24 15-16.994z" id="Path-35-Copy" fill="#7CC25A" transform="rotate(-9 41.617 14.228)"/></g><path id="Star" fill="#EFBD66" d="M86.124 44.981l-3.656 2.288 1.04-3.777L81 40.822l3.31-.395L86.94 37l.904 3.038L92 41.653l-3.461 2.382.697 3.965z"/><path d="M42.583 8.84l1.649 17.32c-1.009-4.308-1.559-10.081-1.65-17.32zM3.95 38.788a17696.526 17696.526 0 0 1 15.112 26.626L3.95 38.788z" id="Path" stroke="#000" stroke-width="2" stroke-linecap="round" stroke-linejoin="round"/><path id="Star" fill="#EFBD66" transform="rotate(-147 151.596 103.338)" d="M150.936 107.553l-6.38 3.889 1.818-6.416-4.374-4.53 5.776-.675L152.368 94l1.574 5.157 7.25 2.74-6.042 4.046 1.213 6.733z"/></g></g></g></g></g></g></svg>